<svg xmlns="http://www.w3.org/2000/svg" xmlns:xlink="http://www.w3.org/1999/xlink" width="536.223" height="380.373" viewBox="0 0 536.223 380.373">
  <defs>
    <filter id="Path_200" x="44.218" y="141.95" width="151.273" height="225.065" filterUnits="userSpaceOnUse">
      <feOffset dy="3" input="SourceAlpha"/>
      <feGaussianBlur stdDeviation="3" result="blur"/>
      <feFlood flood-opacity="0.161"/>
      <feComposite operator="in" in2="blur"/>
      <feComposite in="SourceGraphic"/>
    </filter>
    <filter id="Path_201" x="72.272" y="332.236" width="43.396" height="48.137" filterUnits="userSpaceOnUse">
      <feOffset dy="3" input="SourceAlpha"/>
      <feGaussianBlur stdDeviation="3" result="blur-2"/>
      <feFlood flood-opacity="0.161"/>
      <feComposite operator="in" in2="blur-2"/>
      <feComposite in="SourceGraphic"/>
    </filter>
    <filter id="Path_203" x="50.225" y="62.412" width="39.044" height="48.371" filterUnits="userSpaceOnUse">
      <feOffset dy="3" input="SourceAlpha"/>
      <feGaussianBlur stdDeviation="3" result="blur-3"/>
      <feFlood flood-opacity="0.161"/>
      <feComposite operator="in" in2="blur-3"/>
      <feComposite in="SourceGraphic"/>
    </filter>
    <filter id="Ellipse_4" x="33.91" y="15.521" width="72.073" height="72.073" filterUnits="userSpaceOnUse">
      <feOffset dy="3" input="SourceAlpha"/>
      <feGaussianBlur stdDeviation="3" result="blur-4"/>
      <feFlood flood-opacity="0.161"/>
      <feComposite operator="in" in2="blur-4"/>
      <feComposite in="SourceGraphic"/>
    </filter>
    <filter id="Ellipse_5" x="47.894" y="6.06" width="40.375" height="40.375" filterUnits="userSpaceOnUse">
      <feOffset dy="3" input="SourceAlpha"/>
      <feGaussianBlur stdDeviation="3" result="blur-5"/>
      <feFlood flood-opacity="0.161"/>
      <feComposite operator="in" in2="blur-5"/>
      <feComposite in="SourceGraphic"/>
    </filter>
    <filter id="Path_204" x="63.976" y="0" width="30.353" height="40.375" filterUnits="userSpaceOnUse">
      <feOffset dy="3" input="SourceAlpha"/>
      <feGaussianBlur stdDeviation="3" result="blur-6"/>
      <feFlood flood-opacity="0.161"/>
      <feComposite operator="in" in2="blur-6"/>
      <feComposite in="SourceGraphic"/>
    </filter>
    <filter id="Ellipse_6" x="43.17" y="37.223" width="55.04" height="55.04" filterUnits="userSpaceOnUse">
      <feOffset dy="3" input="SourceAlpha"/>
      <feGaussianBlur stdDeviation="3" result="blur-7"/>
      <feFlood flood-opacity="0.161"/>
      <feComposite operator="in" in2="blur-7"/>
      <feComposite in="SourceGraphic"/>
    </filter>
    <filter id="Path_205" x="19.578" y="78.779" width="101.329" height="100.476" filterUnits="userSpaceOnUse">
      <feOffset dy="3" input="SourceAlpha"/>
      <feGaussianBlur stdDeviation="3" result="blur-8"/>
      <feFlood flood-opacity="0.161"/>
      <feComposite operator="in" in2="blur-8"/>
      <feComposite in="SourceGraphic"/>
    </filter>
    <filter id="Path_207" x="33.702" y="153.602" width="37.414" height="30.841" filterUnits="userSpaceOnUse">
      <feOffset dy="3" input="SourceAlpha"/>
      <feGaussianBlur stdDeviation="3" result="blur-9"/>
      <feFlood flood-opacity="0.161"/>
      <feComposite operator="in" in2="blur-9"/>
      <feComposite in="SourceGraphic"/>
    </filter>
    <filter id="Path_208" x="0" y="94.767" width="58.843" height="93.403" filterUnits="userSpaceOnUse">
      <feOffset dy="3" input="SourceAlpha"/>
      <feGaussianBlur stdDeviation="3" result="blur-10"/>
      <feFlood flood-opacity="0.161"/>
      <feComposite operator="in" in2="blur-10"/>
      <feComposite in="SourceGraphic"/>
    </filter>
    <filter id="Path_209" x="88.808" y="93.004" width="86.789" height="102.025" filterUnits="userSpaceOnUse">
      <feOffset dy="3" input="SourceAlpha"/>
      <feGaussianBlur stdDeviation="3" result="blur-11"/>
      <feFlood flood-opacity="0.161"/>
      <feComposite operator="in" in2="blur-11"/>
      <feComposite in="SourceGraphic"/>
    </filter>
    <filter id="Ellipse_7" x="42.3" y="22.551" width="55.292" height="40.375" filterUnits="userSpaceOnUse">
      <feOffset dy="3" input="SourceAlpha"/>
      <feGaussianBlur stdDeviation="3" result="blur-12"/>
      <feFlood flood-opacity="0.161"/>
      <feComposite operator="in" in2="blur-12"/>
      <feComposite in="SourceGraphic"/>
    </filter>
    <filter id="Path_210" x="110.949" y="275.123" width="290.68" height="101.227" filterUnits="userSpaceOnUse">
      <feOffset dy="3" input="SourceAlpha"/>
      <feGaussianBlur stdDeviation="3" result="blur-13"/>
      <feFlood flood-opacity="0.161"/>
      <feComposite operator="in" in2="blur-13"/>
      <feComposite in="SourceGraphic"/>
    </filter>
    <filter id="Path_217" x="151.633" y="29.082" width="279.127" height="89.674" filterUnits="userSpaceOnUse">
      <feOffset dy="3" input="SourceAlpha"/>
      <feGaussianBlur stdDeviation="3" result="blur-14"/>
      <feFlood flood-opacity="0.161"/>
      <feComposite operator="in" in2="blur-14"/>
      <feComposite in="SourceGraphic"/>
    </filter>
    <filter id="Path_223" x="257.096" y="154.991" width="279.127" height="89.674" filterUnits="userSpaceOnUse">
      <feOffset dy="3" input="SourceAlpha"/>
      <feGaussianBlur stdDeviation="3" result="blur-15"/>
      <feFlood flood-opacity="0.161"/>
      <feComposite operator="in" in2="blur-15"/>
      <feComposite in="SourceGraphic"/>
    </filter>
  </defs>
  <g id="undraw_crypto_portfolio_2jy5" transform="translate(9 6)">
    <g transform="matrix(1, 0, 0, 1, -9, -6)" filter="url(#Path_200)">
      <path id="Path_200-2" data-name="Path 200" d="M198.018,393.326c-9.7,7.937,6.173,77.608,6.173,77.608s3.528,106.27,11.024,111.121,24.253-.441,30.867-1.323.882-66.584-8.819-90.837-2.2-59.529-2.2-59.529l52.474,10.142s-31.749,26.9-30.426,32.631,35.276,25.134,41.45,26.016,18.079-35.276,28.662-59.97S254.9,398.618,254.9,398.618l-11.465-21.607S207.719,385.389,198.018,393.326Z" transform="translate(-141.66 -229.06)" fill="#2f2e41"/>
    </g>
    <g transform="matrix(1, 0, 0, 1, -9, -6)" filter="url(#Path_201)">
      <path id="Path_201-2" data-name="Path 201" d="M248.487,747.573s-3.2,11.2,0,11.2,9.066,3.2,18.132,2.133,6.4-12.266,0-13.866-4.8-14.4-4.8-14.4c-2.133-4.266-12.266,1.067-12.266,1.067Z" transform="translate(-165.79 -392.75)" fill="#2f2e41"/>
    </g>
    <path id="Path_202" data-name="Path 202" d="M331.356,583.845s-5.49,10.273-2.362,10.947,8.187,5.04,17.275,5.909,8.842-10.641,2.924-13.554-1.655-15.087-1.655-15.087c-1.186-4.62-12.215-1.544-12.215-1.544Z" transform="translate(-212.234 -324.079)" fill="#2f2e41"/>
    <g transform="matrix(1, 0, 0, 1, -9, -6)" filter="url(#Path_203)">
      <path id="Path_203-2" data-name="Path 203" d="M209.138,229.44c.882,1.764-3.087,23.812-3.087,23.812l3.528,6.173s20.284-7.937,17.2-9.26-2.646-17.638-2.646-17.638S208.256,227.676,209.138,229.44Z" transform="translate(-146.83 -160.64)" fill="#ffb9b9"/>
    </g>
    <g transform="matrix(1, 0, 0, 1, -9, -6)" filter="url(#Ellipse_4)">
      <circle id="Ellipse_4-2" data-name="Ellipse 4" cx="27.037" cy="27.037" r="27.037" transform="translate(42.91 21.52)" fill="#2f2e41"/>
    </g>
    <g transform="matrix(1, 0, 0, 1, -9, -6)" filter="url(#Ellipse_5)">
      <circle id="Ellipse_5-2" data-name="Ellipse 5" cx="11.188" cy="11.188" r="11.188" transform="translate(56.89 12.06)" fill="#2f2e41"/>
    </g>
    <g transform="matrix(1, 0, 0, 1, -9, -6)" filter="url(#Path_204)">
      <path id="Path_204-2" data-name="Path 204" d="M231.631,135.267a11.316,11.316,0,0,0,1.165.06,11.188,11.188,0,0,0,0-22.375,11.309,11.309,0,0,0-1.165.06,11.188,11.188,0,0,1,0,22.254Z" transform="translate(-158.66 -106.95)" fill="#2f2e41"/>
    </g>
    <g transform="matrix(1, 0, 0, 1, -9, -6)" filter="url(#Ellipse_6)">
      <circle id="Ellipse_6-2" data-name="Ellipse 6" cx="18.52" cy="18.52" r="18.52" transform="translate(52.17 43.22)" fill="#ffb9b9"/>
    </g>
    <g transform="matrix(1, 0, 0, 1, -9, -6)" filter="url(#Path_205)">
      <path id="Path_205-2" data-name="Path 205" d="M164.475,264.9c-5.732,1.323-15.433,15.433-15.433,15.433l15.433,15.433s11.024,41.45,12.347,43.214c8.667,11.555,47.623-14.111,47.623-14.111s-1.543-12.567-.661-18.741c.848-5.937-3.307-17.859-3.307-17.859s14.551-6.173,11.465-12.347-22.048-20.284-29.985-15.433-23.812,0-23.812,0A124.555,124.555,0,0,1,164.475,264.9Z" transform="translate(-120.46 -174.72)" fill="#e43066"/>
    </g>
    <path id="Path_206" data-name="Path 206" d="M387.331,432.564s25.134,21.607,31.308,17.2-23.812-19.843-23.812-19.843Z" transform="translate(-239.656 -259.527)" fill="#ffb9b9"/>
    <g transform="matrix(1, 0, 0, 1, -9, -6)" filter="url(#Path_207)">
      <path id="Path_207-2" data-name="Path 207" d="M176.4,410.625c3.528,3.969,20.284-6.173,18.136-10.677s-15.49,4.5-15.49,4.5S172.877,406.657,176.4,410.625Z" transform="translate(-132.61 -239.08)" fill="#ffb9b9"/>
    </g>
    <g transform="matrix(1, 0, 0, 1, -9, -6)" filter="url(#Path_208)">
      <path id="Path_208-2" data-name="Path 208" d="M147.633,300.265l-18.52,34.394s21.166,17.638,23.811,18.079-5.291,11.906-5.291,11.906-23.812-16.756-33.072-25.134S132.2,294.092,132.2,294.092l7.937-4.85Z" transform="translate(-103.62 -188.47)" fill="#e43066"/>
    </g>
    <g transform="matrix(1, 0, 0, 1, -9, -6)" filter="url(#Path_209)">
      <path id="Path_209-2" data-name="Path 209" d="M277.825,297.425l21.607,33.512s33.072,37.04,37.481,38.8,9.7-6.614,9.7-6.614l-39.686-48.064-14.992-26.9-5.732-2.2Z" transform="translate(-180.02 -186.96)" fill="#e43066"/>
    </g>
    <g transform="matrix(1, 0, 0, 1, -9, -6)" filter="url(#Ellipse_7)">
      <ellipse id="Ellipse_7-2" data-name="Ellipse 7" cx="18.646" cy="11.188" rx="18.646" ry="11.188" transform="translate(51.3 28.55)" fill="#2f2e41"/>
    </g>
    <g transform="matrix(1, 0, 0, 1, -9, -6)" filter="url(#Path_210)">
      <path id="Path_210-2" data-name="Path 210" d="M321.316,624.742a2.308,2.308,0,0,0-2.305,2.3v78.617a2.308,2.308,0,0,0,2.305,2.3h268.07a2.308,2.308,0,0,0,2.3-2.3V627.047a2.308,2.308,0,0,0-2.3-2.305Z" transform="translate(-199.06 -343.62)" fill="#e6e6e6"/>
    </g>
    <path id="Path_211" data-name="Path 211" d="M329.757,707.161H590.883V635.487H329.757Z" transform="translate(-213.032 -354.588)" fill="#fff"/>
    <path id="Path_212" data-name="Path 212" d="M750.911,741.157a3.818,3.818,0,0,0,0,7.636h15.273a3.818,3.818,0,0,0,0-7.636Z" transform="translate(-406.021 -403.453)" fill="#b65985"/>
    <rect id="Rectangle_4" data-name="Rectangle 4" width="176.304" height="1.005" transform="translate(187.677 330.298)" fill="#e6e6e6"/>
    <circle id="Ellipse_8" data-name="Ellipse 8" cx="22.239" cy="22.239" r="22.239" transform="translate(128.585 294.498)" fill="#3185fc"/>
    <path id="Path_213" data-name="Path 213" d="M349.161,572.2l-.557-.836,18.32-12.214,12.563,6.031,18.07-11.545L433.5,568.969l28.626-14.062,27.8,11.269,34.928-30.936.666.752-35.394,31.349-27.957-11.335-28.636,14.067-35.882-15.306-18.094,11.561L367.006,560.3Z" transform="translate(-161.205 -247.511)" fill="#3f3d56"/>
    <path id="Path_214" data-name="Path 214" d="M465.009,742.134a3.265,3.265,0,1,0,0,6.53h34.156a3.265,3.265,0,1,0,0-6.53Z" transform="translate(-274.067 -403.905)" fill="#e6e6e6"/>
    <path id="Path_215" data-name="Path 215" d="M391.348,683.645h3.475l-7.231,7.156a6.751,6.751,0,0,1-9.478,0l-7.23-7.156h3.475l5.493,5.436a4.276,4.276,0,0,0,6,0Zm-17.032,19.9h-3.475l7.275-7.2a6.751,6.751,0,0,1,9.478,0l7.275,7.2h-3.475l-5.538-5.48a4.276,4.276,0,0,0-6,0Z" transform="translate(-232.03 -376.857)" fill="#fff"/>
    <path id="Path_216" data-name="Path 216" d="M386.251,156.307a2.308,2.308,0,0,0-2.305,2.305v78.617a2.308,2.308,0,0,0,2.305,2.3h268.07a2.308,2.308,0,0,0,2.3-2.305V158.612a2.308,2.308,0,0,0-2.3-2.305Z" transform="translate(-238.091 -133.001)" fill="#e6e6e6"/>
    <g transform="matrix(1, 0, 0, 1, -9, -6)" filter="url(#Path_217)">
      <path id="Path_217-2" data-name="Path 217" d="M394.692,238.726H655.819V167.052H394.692Z" transform="translate(-234.06 -131.97)" fill="#fff"/>
    </g>
    <path id="Path_218" data-name="Path 218" d="M815.848,272.722a3.818,3.818,0,1,0,0,7.636H831.12a3.818,3.818,0,0,0,0-7.636Z" transform="translate(-436.049 -186.835)" fill="#b65985"/>
    <rect id="Rectangle_5" data-name="Rectangle 5" width="176.304" height="1.005" transform="translate(222.585 78.482)" fill="#e6e6e6"/>
    <circle id="Ellipse_9" data-name="Ellipse 9" cx="22.239" cy="22.239" r="22.239" transform="translate(163.493 42.68)" fill="#3185fc"/>
    <path id="Path_219" data-name="Path 219" d="M414.1,103.764l-.557-.836,18.32-12.214,12.563,6.03L462.493,85.2l.244.1,35.7,15.23,28.626-14.062,27.8,11.269,34.928-30.936.666.752L555.061,98.906,527.1,87.572l-28.635,14.067L462.587,86.332l-18.095,11.56-12.552-6.025Z" transform="translate(-191.233 -30.892)" fill="#3f3d56"/>
    <path id="Path_220" data-name="Path 220" d="M529.944,273.7a3.265,3.265,0,0,0,0,6.53H564.1a3.265,3.265,0,1,0,0-6.53Z" transform="translate(-304.095 -187.286)" fill="#e6e6e6"/>
    <path id="Path_221" data-name="Path 221" d="M457.6,219.729c.416-2.783-1.7-4.279-4.6-5.277l.94-3.77-2.3-.572-.915,3.671c-.6-.15-1.222-.292-1.838-.433l.922-3.695-2.293-.572-.94,3.769c-.5-.114-.99-.226-1.465-.344l0-.012-3.165-.79-.61,2.451s1.7.39,1.667.414a1.221,1.221,0,0,1,1.069,1.335l-1.071,4.295a1.906,1.906,0,0,1,.239.076l-.242-.06-1.5,6.016a.835.835,0,0,1-1.052.545c.023.033-1.668-.416-1.668-.416l-1.139,2.627,2.987.744c.556.139,1.1.285,1.635.422l-.95,3.814,2.292.572.941-3.772c.625.17,1.233.327,1.828.474L445.441,235l2.295.572.95-3.806c3.913.741,6.856.442,8.093-3.1,1-2.85-.049-4.493-2.108-5.566a3.662,3.662,0,0,0,2.93-3.371Zm-5.244,7.352c-.71,2.85-5.507,1.31-7.063.923l1.26-5.052c1.556.388,6.543,1.157,5.8,4.129Zm.709-7.393c-.647,2.592-4.64,1.275-5.936.952l1.142-4.582c1.3.323,5.469.926,4.794,3.63Z" transform="translate(-262.922 -157.405)" fill="#fff"/>
    <path id="Path_222" data-name="Path 222" d="M582.438,390.524a2.308,2.308,0,0,0-2.305,2.305v78.617a2.308,2.308,0,0,0,2.305,2.3h268.07a2.308,2.308,0,0,0,2.3-2.3V392.829a2.308,2.308,0,0,0-2.3-2.3Z" transform="translate(-328.813 -241.31)" fill="#e6e6e6"/>
    <g transform="matrix(1, 0, 0, 1, -9, -6)" filter="url(#Path_223)">
      <path id="Path_223-2" data-name="Path 223" d="M590.878,472.944H852.005V401.27H590.878Z" transform="translate(-324.78 -240.28)" fill="#fff"/>
    </g>
    <path id="Path_224" data-name="Path 224" d="M1012.036,506.94a3.818,3.818,0,0,0,0,7.636h15.273a3.818,3.818,0,1,0,0-7.636h-15.273Z" transform="translate(-526.772 -295.144)" fill="#b65985"/>
    <rect id="Rectangle_6" data-name="Rectangle 6" width="176.304" height="1.005" transform="translate(328.049 204.39)" fill="#e6e6e6"/>
    <circle id="Ellipse_10" data-name="Ellipse 10" cx="22.239" cy="22.239" r="22.239" transform="translate(268.957 168.589)" fill="#3185fc"/>
    <path id="Path_225" data-name="Path 225" d="M610.282,337.982l-.557-.836,18.32-12.214,12.564,6.03,18.07-11.545.245.1,35.7,15.23,28.626-14.062,27.8,11.269,34.928-30.936.666.753-35.394,31.348L723.291,321.79l-28.636,14.067L658.773,320.55l-18.1,11.56-12.551-6.025Z" transform="translate(-281.955 -139.202)" fill="#3f3d56"/>
    <path id="Path_226" data-name="Path 226" d="M726.13,507.917a3.265,3.265,0,1,0,0,6.53h34.156a3.265,3.265,0,0,0,0-6.53Z" transform="translate(-394.817 -295.596)" fill="#e6e6e6"/>
    <path id="Path_227" data-name="Path 227" d="M533.944,371.341l9-12.679-9,5.316h0l-9-5.316,9,12.679h0Z" transform="translate(-242.751 -165.856)" fill="#fff"/>
    <path id="Path_228" data-name="Path 228" d="M533.944,347.964h0l9-5.318-9-14.929h0l-9,14.929Z" transform="translate(-242.751 -151.546)" fill="#fff"/>
  </g>
</svg>
