<svg xmlns="http://www.w3.org/2000/svg" xmlns:xlink="http://www.w3.org/1999/xlink" width="420.552" height="333.96" viewBox="0 0 420.552 333.96">
  <defs>
    <filter id="Path_477" x="0" y="0" width="420.552" height="333.96" filterUnits="userSpaceOnUse">
      <feOffset dy="3" input="SourceAlpha"/>
      <feGaussianBlur stdDeviation="3" result="blur"/>
      <feFlood flood-opacity="0.161"/>
      <feComposite operator="in" in2="blur"/>
      <feComposite in="SourceGraphic"/>
    </filter>
  </defs>
  <g transform="matrix(1, 0, 0, 1, 0, 0)" filter="url(#Path_477)">
    <path id="Path_477-2" data-name="Path 477" d="M2080.747,363.132c43.062-7.976,165.663-23.516,247.132,95.736,89.431,130.906,163.837,114.6,150.614,214.233-.426,3.21.684-7.428,0-3.641,0,0,1.81,1.769,0,1.821-15.695.453-111.827,1.1-150.5-1.821-83.659,2.27-222.146,3.641-222.146,3.641s-24.406-1.3-25.1-1.821c-1.437-1.078-1.3-3.163-1.456-4.9a17.917,17.917,0,0,1,0-3.57s-.561-7.227,0-10.964c1.306-8.745.888-18.437,0-44.74-.561-16.614-1.821-35.321-1.821-35.321,6.524-34.2,3.205-71.735,3.277-103.778C2080.878,409.616,2076.816,363.86,2080.747,363.132Z" transform="translate(-2068.47 -351.75)" fill="#00aeff"/>
  </g>
</svg>
