<svg id="Layer_1" data-name="Layer 1" xmlns="http://www.w3.org/2000/svg" viewBox="0 0 538.85 63.56"><defs><style>.cls-1{fill:#46a7de;}</style></defs><path class="cls-1" d="M163,522.84c-11-.46-20.64-3.79-27-13.34-6-8.93-5.15-19.47,1.74-27.7,12-14.35,38.79-14.34,50.78,0,9.71,11.62,6.63,27.64-6.95,35.91A34.14,34.14,0,0,1,163,522.84Zm-3.23-18.74c3.26-1.64,6.31-3.23,9.41-4.73,1.79-.86,3.51-2,2.28-4.08s-2.88-.43-4.27.27c-3.25,1.63-6.46,3.33-9.71,5-1.22.61-2.61,1.26-3.37-.51s.93-1.88,1.85-2.36q6-3.07,12-6c1.19-.58,2-1.36,1.49-2.71-.71-2-2-.57-2.83-.2-3.65,1.61-7.22,3.41-10.85,5.08-.85.4-1.83,1.3-2.72.51s-.5-2.22-.08-3.28c2-5,6.12-7.19,11-8.4,1.2-.3,3.42.61,3-2.08-.32-2-1.13-3.19-3.61-3.05-8.81.5-16.83,8.5-16.84,17.22,0,2.15,0,4-2.45,4.78-1.46.48-2.32,1.54-1.44,3.07s2,.2,3,0,2.17-1.38,3,.18c.64,1.16-.11,1.9-1.07,2.38-1.56.8-1.65,2-.9,3.33,1,1.79,2.39.77,3.39.07,2.2-1.55,3.92-.54,6,.46,9,4.38,20.33,2.8,26.7-3.19,2.14-2,1.22-3.3,0-5-1.87-2.56-2.63-.31-3.7.73C173.37,507,166.2,508.06,159.76,504.1Z" transform="translate(-33.02 -469.96)"/><path class="cls-1" d="M456.77,501.62c0-18.33,13.15-31.61,31.32-31.66,18.67,0,31.33,12.64,31.3,31.38A31.44,31.44,0,0,1,488,533.26C469.68,533.46,456.75,520.34,456.77,501.62Zm5.64-.21a31.15,31.15,0,0,0,1.22,9.91c2.86,9.81,11.05,17.26,20.25,18.35,12.24,1.45,21.13-2.76,26.54-12.56,5.73-10.4,4.2-26.65-3.5-35.75-10.31-12.19-35.87-11.1-42.32,5.93A36.52,36.52,0,0,0,462.41,501.41Z" transform="translate(-33.02 -469.96)"/><path class="cls-1" d="M285.85,498.2c9-7.82,17-15.4,23.87-23.92,2.63-3.25,5.25-3.94,9.62-3.11-8.62,7.49-16.66,14.85-24.3,22.62-5,5.08-5,5-.21,10.28a282.69,282.69,0,0,0,29.09,28.1c-5.65.73-9.46.34-13.07-3.88-7.65-8.93-16.06-17.23-24.07-25.7-1.88.67-1.35,2-1.32,3.06.22,8.14-.8,16.33.75,24.4.59,3-1.38,2.53-2.89,2.39s-4,1.31-3.65-2.22c1.58-15.94.37-31.92.7-47.87.05-2.49-.33-5-.36-7.47,0-1.32-1.49-3.17.54-3.86a7.75,7.75,0,0,1,4.9,0c2,.76.39,2.58.39,3.93C285.85,482.39,285.85,489.8,285.85,498.2Z" transform="translate(-33.02 -469.96)"/><path class="cls-1" d="M242.53,533c-10.56-.47-22-2.4-29.47-13.11-13.3-19.06-1.89-45.7,21-49.22a62.48,62.48,0,0,1,25.69,1.8c1.68.44,3.54.68,2.67,3.1s-2.5.9-3.71.47a48.24,48.24,0,0,0-24.09-2.27c-13,2.12-20.17,10.25-21.36,23.79-1.27,14.42,5.2,25.42,17.9,30,10.51,3.77,20.89,3,31.1-1.38,1.24-.52,2.76-2.79,4-.08,1.43,3.06-1.6,2.77-2.93,3.28A56.94,56.94,0,0,1,242.53,533Z" transform="translate(-33.02 -469.96)"/><path class="cls-1" d="M337.67,501.52c-.52-9.12.7-18.27-.85-27.36-.28-1.64-.54-3.59,2.08-3.5,7.79.28,15.64-1,23.35.81,6.81,1.56,12,5.15,13.26,12.48,1.29,7.73-1.21,14-8,18.41a31.92,31.92,0,0,1-20.36,5.22c-3.5-.29-4.69.92-4.45,4.44.4,5.78-.49,11.63.84,17.38.68,2.91-1,3.27-3.36,3.27s-3.9-.36-3.38-3.29C338.39,520.14,337.18,510.8,337.67,501.52Zm5.05-12.35c0,4,0,8,0,11.95,0,1.75,0,3.27,2.44,3.42,6.59.41,12.91-.18,18.57-4s6.62-9.23,5.86-15.35c-.69-5.44-4.45-8.31-9.12-10.21-3.77-1.53-7.77-1.43-11.77-1.24-4.18.2-6.83,1.48-6.07,6.51C343.08,483.15,342.71,486.19,342.72,489.17Z" transform="translate(-33.02 -469.96)"/><path class="cls-1" d="M33.45,520.24c7.36,9.18,15.62,11.67,24.23,8.25,8.79-3.49,10.54-13.36,3.42-19.62-3.66-3.23-8.17-5.06-12.49-7.19a41.6,41.6,0,0,1-10.09-6.33c-7.12-6.56-6.16-17.13,2.23-22,7.89-4.57,16.18-4,24.54-1.11,2.26.78,2.29,2.33,1.65,3.93-1.09,2.72-2.5.25-3.46-.17-5.67-2.45-11.37-3.74-17.38-1.4-8.66,3.38-10.16,11.79-3.26,18.09,2.61,2.39,5.79,3.86,8.91,5.42,3.71,1.86,7.53,3.53,11.12,5.6,4.88,2.81,8.21,6.8,7.86,12.86-.37,6.36-3.49,11.19-9.2,13.8-8.44,3.86-17.08,3.49-25.65.06C30.7,528.36,34.32,524.53,33.45,520.24Z" transform="translate(-33.02 -469.96)"/><path class="cls-1" d="M550.4,503.91c.6,7.57-.87,16.88.76,26.16.62,3.53-2.45,2.21-4.13,2.37s-3.1.23-2.84-2.57c1.59-17.25.29-34.55.74-51.82.06-2.44-.76-3.51-3.31-3.87-3.32-.47-6.53-.94-9.88-.23a42.92,42.92,0,0,1-5.46.43c-1.57.13-2.71-.5-2.83-2.09-.18-2.33,1.78-1.52,2.85-1.53,8.65-.08,17.3-.05,26-.05,5.49,0,11,0,16.46.06,1.13,0,3.1-.84,3.16,1.22s-1.68,2.66-3.53,2.3c-4.62-.89-9.2-.49-13.85-.14-3.31.24-4.2,1.5-4.14,4.6C550.51,486.57,550.4,494.39,550.4,503.91Z" transform="translate(-33.02 -469.96)"/><path class="cls-1" d="M106.65,504.1c.51,7.51-.91,16.84.73,26.09.61,3.43-1.92,2.34-3.43,2.37s-3.77,1-3.4-2.44c1.87-17.07.32-34.22.94-51.32.12-3.56-1.35-4.63-4.5-4.9a54.79,54.79,0,0,0-13.42.31c-1.75.28-3.61.57-3.71-1.85s2.07-1.62,3.33-1.63q21-.11,41.91,0c1.08,0,3.4-1.16,3,1.75-.29,2.13-1.7,2-3.31,1.72a54.32,54.32,0,0,0-14.41-.25c-2.9.26-3.88,1.46-3.81,4.42C106.78,486.36,106.65,494.34,106.65,504.1Z" transform="translate(-33.02 -469.96)"/><path class="cls-1" d="M132.63,509.67c16.05,20.93,45.9,20.15,60.47.46,1.43,10.57-11.44,21.76-26.74,23.23C149.24,535,133.32,524.15,132.63,509.67Z" transform="translate(-33.02 -469.96)"/><path class="cls-1" d="M433.13,532.57c-5.32,0-10.64-.09-16,0-2.29,0-2.67-.72-2.48-2.91a346.27,346.27,0,0,0,.08-55.22c-.2-2.78.42-3.87,3.4-3.89s3.53,1.26,3.25,4c-1.69,16.74-.27,33.55-.83,50.32-.14,4.21,2.38,4.7,5.32,4.63,7.64-.2,15.26-.69,22.89-.89,1.23,0,3.6-2,3.64,1.33,0,2.64-1.9,2.66-3.84,2.65C443.45,532.55,438.29,532.57,433.13,532.57Z" transform="translate(-33.02 -469.96)"/><path class="cls-1" d="M393,532.46c-.86-.23-3.56,1.07-3.11-2.18,1.71-12.23.53-24.52.73-36.79.1-6.61.75-13.28-.72-19.85-.72-3.22,1.52-3,3.58-3s3.53-.45,3.35,3c-1,18.57-.9,37.18,0,55.75C396.93,532.4,396.1,532.88,393,532.46Z" transform="translate(-33.02 -469.96)"/></svg>