<svg xmlns="http://www.w3.org/2000/svg" width="26" height="26" viewBox="0 0 26 26">
  <g id="Group_35" data-name="Group 35" transform="translate(-1411.214 -283)">
    <path id="Path_487" data-name="Path 487" d="M15.314,53.661V51.5c0-.487-.535-.882-1.2-.882s-1.2.395-1.2.882v2.159c-1.458.151-2.584,1.077-2.584,2.194V67.7c0,1.117,1.126,2.043,2.584,2.194v2.159c0,.487.535.882,1.2.882s1.2-.395,1.2-.882V69.894c1.458-.151,2.584-1.077,2.584-2.194V55.855C17.9,54.738,16.772,53.812,15.314,53.661ZM15.507,67.7c0,.249-.275.452-.612.452H13.342c-.338,0-.612-.2-.612-.452V55.855c0-.249.275-.452.612-.452H14.9c.338,0,.612.2.612.452V67.7Z" transform="translate(1400.875 232.709)" fill="#4b4b4a"/>
    <path id="Path_488" data-name="Path 488" d="M246.722,29.108V26.949c0-.487-.535-.882-1.2-.882s-1.2.395-1.2.882v2.159c-1.458.151-2.584,1.077-2.584,2.194V39.68c0,1.117,1.126,2.043,2.584,2.194v8.982c0,.487.535.882,1.2.882s1.2-.395,1.2-.882V41.874c1.458-.151,2.584-1.077,2.584-2.194V31.3C249.306,30.185,248.18,29.259,246.722,29.108Zm.194,10.572c0,.249-.275.452-.612.452H244.75c-.338,0-.612-.2-.612-.452V31.3c0-.249.275-.452.612-.452H246.3c.338,0,.612.2.612.452Z" transform="translate(1178.688 257.262)" fill="#4b4b4a"/>
    <path id="Path_490" data-name="Path 490" d="M362.426,27.988V21.361c0-.487-.535-.882-1.2-.882s-1.2.395-1.2.882v6.627c-1.458.151-2.584,1.077-2.584,2.194v9.443c0,1.117,1.126,2.043,2.584,2.194v2.159c0,.487.535.882,1.2.882s1.2-.395,1.2-.882V41.819c1.458-.151,2.584-1.077,2.584-2.194V30.182C365.01,29.065,363.884,28.139,362.426,27.988Zm.194,11.637c0,.249-.275.452-.612.452h-1.553c-.338,0-.612-.2-.612-.452V30.182c0-.249.275-.452.612-.452h1.553c.338,0,.612.2.612.452Z" transform="translate(1072.204 262.521)" fill="#4b4b4a"/>
  </g>
</svg>
